<?xml version="1.0" encoding="UTF-8"?><svg id="uuid-c5fc6fd4-c9c7-4df9-9ef3-de9502f62318" xmlns="http://www.w3.org/2000/svg" width="360" height="200" viewBox="0 0 360 200"><defs><style>.uuid-77e64c53-a4bb-428f-9a05-19d11feca19a{fill:#ddd;isolation:isolate;opacity:.5;}.uuid-77e64c53-a4bb-428f-9a05-19d11feca19a,.uuid-bad23832-db4f-4b69-99b7-cc568c4269ac,.uuid-b7c2bc98-d48a-4fae-9cf0-91c452bb34a1,.uuid-206c26df-b67f-4438-8427-0416601128ca{stroke-miterlimit:10;}.uuid-77e64c53-a4bb-428f-9a05-19d11feca19a,.uuid-b7c2bc98-d48a-4fae-9cf0-91c452bb34a1,.uuid-206c26df-b67f-4438-8427-0416601128ca{stroke:#000;}.uuid-c17137a4-d2b5-45d9-aa33-d162e97537fb{fill:#fff;}.uuid-a49da774-ef61-44a3-b78b-06b2cd375e4e{fill:#333;}.uuid-470d84a3-9014-45c0-a43f-8248bd173892{fill:#555;}.uuid-bad23832-db4f-4b69-99b7-cc568c4269ac{stroke:#333;stroke-linecap:round;}.uuid-bad23832-db4f-4b69-99b7-cc568c4269ac,.uuid-206c26df-b67f-4438-8427-0416601128ca{fill:none;}.uuid-b7c2bc98-d48a-4fae-9cf0-91c452bb34a1{fill:#aaa;}</style></defs><rect class="uuid-c17137a4-d2b5-45d9-aa33-d162e97537fb" width="360" height="200"/><g id="uuid-ba4b004a-b484-4cc7-8854-54ea317e6751"><path class="uuid-b7c2bc98-d48a-4fae-9cf0-91c452bb34a1" d="m175.6,125.7c28.3-16,19.5-37.8-12.9-49.3-28.9-10.3-71.3-10.3-100.2,0-32.3,11.5-41.2,33.3-12.9,49.3,32.7,18.4,93.4,18.4,126,0Z"/><path d="m112.6,20.7c43.8,0,79.3,35.5,79.3,79.3s-35.5,79.3-79.3,79.3-79.3-35.5-79.3-79.3c0-21,8.4-41.2,23.2-56.1,14.9-14.9,35.1-23.2,56.1-23.2m0-.7c-44.2,0-80,35.8-80,80s35.8,80,80,80,80-35.8,80-80S156.8,20,112.6,20h0Z"/><line class="uuid-206c26df-b67f-4438-8427-0416601128ca" x1="112.6" y1="100" x2="162" y2="131.8"/><path class="uuid-a49da774-ef61-44a3-b78b-06b2cd375e4e" d="m112.6,20.7c43.8,0,79.3,35.5,79.3,79.3s-35.5,79.3-79.3,79.3-79.3-35.5-79.3-79.3c0-21,8.4-41.2,23.2-56.1,14.9-14.9,35.1-23.2,56.1-23.2m0-.7c-44.2,0-80,35.8-80,80s35.8,80,80,80,80-35.8,80-80S156.8,20,112.6,20h0Z"/><circle class="uuid-77e64c53-a4bb-428f-9a05-19d11feca19a" cx="112.6" cy="100" r="80"/></g><g id="uuid-6b8e3092-86bd-4e99-b4ff-f73e43775781"><path class="uuid-206c26df-b67f-4438-8427-0416601128ca" d="m32.6,104.1c0,7.4,5.4,15.1,17,21.6,32.6,18.4,93.3,18.4,126,0,11.6-6.6,17-14.2,17-21.6"/></g><path class="uuid-a49da774-ef61-44a3-b78b-06b2cd375e4e" d="m146.5,109.9c-.2,0-.4-.1-.5-.2s-.2-.3-.2-.5.3-1.5.9-3.8c.4-1.3.7-2.6.9-3.9,0-.6-.2-.9-.6-.9-.2,0-.3.1-.4.2-.6.7-.9,1.6-1.1,2.4v.2h-.7c-.1-.1-.1-.2-.1-.2.1-.4.2-.7.3-1,.2-.7.5-1.3,1-1.8.3-.3.7-.5,1.2-.5s1,.1,1.4.4c.3.2.5.5.6.8,0,.1.1.1.1.1,0,0,.1,0,.2-.2.5-.6,1.1-1,1.9-1.1h.6c.5,0,1,.1,1.3.5.3.3.5.8.5,1.3,0,.4-.1.8-.4,1.2-.2.3-.6.5-1,.5-.3,0-.5-.1-.7-.2-.2-.2-.3-.4-.3-.6,0-.7.5-1.3,1.2-1.4-.2-.2-.5-.3-.8-.3s-.6.1-.9.2c-.6.3-1.1.8-1.4,1.4-.1.2-.3.5-.3.7-.1.2-.3,1.2-.7,2.9-.5,2.1-.8,3.1-.9,3.3-.4.3-.7.5-1.1.5Z"/><path class="uuid-a49da774-ef61-44a3-b78b-06b2cd375e4e" d="m235.2,101.5c-.1-.1-.2-.2-.2-.2,0-.2,0-.3.1-.4,0-.1.1-.2.2-.3h.2c.6,0,1.4.1,2.3.1,1.7,0,2.8,0,3.1-.1h.2q.1.1.1.2c0,.1,0,.3-.1.4,0,.2-.1.3-.2.4h-1.2c-.4.1-.7.2-.7.3,0,0,.2,1.9.6,5.5.4,3.7.6,5.5.7,5.5l1.6-2.6c1.1-1.7,2.1-3.4,3.2-5.2,1.1-1.7,1.6-2.6,1.6-2.7.1-.1.1-.2.1-.3,0-.3-.3-.5-1-.6-.3,0-.4-.1-.4-.2s0-.2.1-.3c0-.1.1-.3.1-.4.1-.1.2-.1.3-.1h4.5c.1.1.2.2.2.2,0,.2-.1.5-.2.7-.1.1-.2.1-.4.1-.7,0-1.4.3-1.9.7,0,0-.1.1-.1.2l-.1.1c0,.1-.1.2-.2.2-5.4,8.8-8.1,13.2-8.2,13.2l-.1.1h-.9c-.1,0-.1-.1-.1-.1,0-.1-.3-2.4-.9-7-.6-4.7-.8-7-.9-7.1-.1-.2-.5-.2-1.1-.2l-.3-.1h0Z"/><path class="uuid-a49da774-ef61-44a3-b78b-06b2cd375e4e" d="m253.5,107.9c0-.2.1-.4.3-.4h14c.2.1.3.2.3.4s-.1.3-.3.4h-14c-.2,0-.3-.2-.3-.4Zm0,4.3c0-.2.1-.4.4-.4h14l.1.1.1.1s0,.1.1.1v.2c0,.2-.1.4-.3.4h-14c-.3-.2-.4-.3-.4-.5Z"/><path class="uuid-a49da774-ef61-44a3-b78b-06b2cd375e4e" d="m297.7,109.3c-.3,0-.5-.1-.5-.2h0c.2-.4.5-.8.8-1.1.3-.4.6-.8,1-1.1.4-.3.9-.6,1.4-.7h7.3c.3.1.5.3.4.6,0,.2-.1.4-.2.6s-.3.3-.5.4h-4.1s-.1.6-.4,1.8c-.2,1.2-.5,2.4-.7,3.6s-.4,1.9-.4,2c-.1.2-.2.4-.4.5-.2.1-.4.2-.6.2-.4,0-.7-.2-.7-.5v-.4l1.1-3.6c.2-.5.3-1.1.5-1.8.2-.6.3-1.1.5-1.4l.1-.5h-2.2c-.8.1-1.6.6-2,1.4,0,.1-.1.2-.2.2,0,0-.1,0-.2,0Z"/><path class="uuid-a49da774-ef61-44a3-b78b-06b2cd375e4e" d="m311.6,115.8c-.2,0-.4-.1-.5-.2s-.2-.3-.2-.5.3-1.5.9-3.8c.4-1.3.7-2.6.9-3.9,0-.6-.2-.9-.6-.9-.2,0-.3.1-.4.2-.6.7-.9,1.5-1.1,2.4v.2h-.7c-.1-.1-.1-.2-.1-.2.1-.4.2-.7.3-1,.2-.7.5-1.3,1-1.8.3-.3.7-.5,1.2-.5s1,.1,1.4.4c.3.2.5.5.6.8q0,.1.1.1s.1,0,.2-.2c.5-.6,1.1-1,1.9-1.1h.6c.5,0,1,.1,1.3.5.3.3.5.8.5,1.3,0,.4-.1.8-.4,1.2-.2.3-.6.5-1,.5-.3,0-.5-.1-.7-.2-.2-.2-.3-.4-.3-.6,0-.7.5-1.3,1.2-1.4-.2-.2-.5-.3-.8-.3s-.6.1-.9.2c-.6.3-1.1.8-1.4,1.4-.1.2-.3.5-.3.7-.1.3-.3,1.2-.7,2.9-.5,2.1-.8,3.1-.9,3.3-.3.2-.7.5-1.1.5Z"/><path class="uuid-a49da774-ef61-44a3-b78b-06b2cd375e4e" d="m321.9,102.3c-.2,0-.4-.1-.5-.2-.1-.2-.2-.4-.2-.6,0-.5.2-.9.6-1.2.4-.3.8-.5,1.3-.6h.8c.3,0,.6.1.9.3.5.2.9.7,1.1,1.2v.3c0,.5-.2,1-.5,1.4s-.7.7-1.2.9h.1c.5.1,1,.4,1.3.8s.5.9.5,1.4c0,.4-.1.7-.2,1-.2.5-.6.8-1,1.1-.5.3-1,.4-1.6.4-.5,0-1-.1-1.5-.4-.4-.2-.7-.5-.9-1-.1-.2-.1-.4-.1-.6s.1-.4.2-.6c.3-.3.8-.3,1.2,0,.2.2.2.4.2.6s-.1.4-.2.5-.3.2-.4.3h-.1c.4.4,1,.6,1.6.6.5,0,.9-.3,1.1-.7.2-.4.2-.9.2-1.3v-.3c.1-.7-.2-1.3-.8-1.6-.3-.1-.5-.1-.8-.1h-.5v-.4h.1c.2,0,.5,0,.7-.1.4-.1.7-.3.9-.6.2-.4.3-.9.3-1.3.1-.4-.1-.8-.4-1.1-.2-.1-.4-.2-.6-.2-.4,0-.8.1-1.1.3l-.1.1-.1.1v.1h.1c.2,0,.3.1.4.2s.2.3.2.5-.1.4-.2.5c-.4.2-.6.3-.8.3Z"/><path class="uuid-a49da774-ef61-44a3-b78b-06b2cd375e4e" d="m280.5,94.7c-.4,0-.7-.1-1-.4-.2-.3-.4-.6-.4-1,0-1,.4-2,1.2-2.7.8-.7,1.8-1.2,2.9-1.1,1.1,0,2.2.3,3.1,1,.8.7,1.4,1.6,1.5,2.7v.7c0,.9-.3,1.7-.8,2.4-.7.9-1.6,1.8-2.5,2.5-.5.5-1.3,1.1-2.2,2l-1.3,1.2h1.7c1.2,0,2.5,0,3.7-.1.1,0,.1-.2.2-.5.1-.5.2-1,.3-1.5v.1h.9v.1l-.6,4v.1h-8.2v-.9s.6-.7,1.8-2.1c1.6-1.8,2.6-2.9,3.1-3.5.9-1,1.4-2.3,1.5-3.7,0-.9-.2-1.7-.8-2.4-.5-.7-1.3-1-2.1-1s-1.6.4-2.1,1.1c0,.1-.1.1-.1.2l-.1.1h.1c.3,0,.7.1.9.4.2.3.3.6.3.9s-.1.7-.4.9c.1.4-.2.5-.6.5Z"/><path class="uuid-a49da774-ef61-44a3-b78b-06b2cd375e4e" d="m280.9,121.3c-.4,0-.7-.1-.9-.4-.2-.3-.4-.6-.3-1,0-.8.4-1.6,1-2.1.6-.6,1.4-.9,2.3-1h1.3c.5.1,1,.2,1.5.5.9.4,1.6,1.1,1.8,2.1.1.2.1.4.1.6,0,.8-.3,1.7-.8,2.3-.5.7-1.2,1.2-2,1.5-.1,0-.1.1,0,.1s.1,0,.2.1c.9.2,1.7.7,2.3,1.4.6.6.9,1.5.9,2.3,0,.6-.1,1.2-.4,1.7-.4.8-1,1.4-1.7,1.9-.8.5-1.7.7-2.7.7-.9,0-1.8-.2-2.6-.6-.7-.3-1.2-.9-1.5-1.6-.2-.3-.2-.7-.2-1.1s.1-.7.4-1c.6-.5,1.4-.5,2,0,.3.3.4.6.4,1,0,.3-.1.6-.3.9-.2.2-.5.4-.8.5h-.2c.8.6,1.7,1,2.7,1,.8,0,1.5-.4,1.8-1.2.3-.7.4-1.5.4-2.2v-.4c.1-1.1-.4-2.2-1.4-2.8-.4-.1-.9-.2-1.3-.2h-1c0-.1-.1-.2,0-.4,0-.1,0-.2.1-.3l.1-.1c.4,0,.9,0,1.3-.1.6-.1,1.2-.5,1.5-1.1.4-.7.5-1.5.5-2.3.1-.7-.2-1.5-.8-1.9-.3-.2-.7-.3-1-.3-.7,0-1.4.2-1.9.6-.1,0-.1.1-.2.1l-.2.2-.1.1h.2c.3,0,.6.2.7.4.2.2.3.5.3.9,0,.3-.1.7-.4.9-.4.2-.8.3-1.1.3Z"/><line class="uuid-bad23832-db4f-4b69-99b7-cc568c4269ac" x1="276.7" y1="110.5" x2="290.6" y2="110.5"/><circle class="uuid-470d84a3-9014-45c0-a43f-8248bd173892" cx="112.6" cy="100" r="3"/></svg>